<svg xmlns="http://www.w3.org/2000/svg" width="1280" height="720" viewBox="0 0 1280 720" role="img" aria-labelledby="title desc">
  <title id="title">Coolify plugin overview</title>
  <desc id="desc">A polished overview screen showing Coolify deployment controls, health, logs, and environment management.</desc>
  <defs>
    <linearGradient id="bg" x1="0" y1="0" x2="1" y2="1">
      <stop offset="0" stop-color="#101828"/>
      <stop offset="1" stop-color="#182230"/>
    </linearGradient>
    <linearGradient id="accent" x1="0" y1="0" x2="1" y2="1">
      <stop offset="0" stop-color="#22c55e"/>
      <stop offset="1" stop-color="#8b5cf6"/>
    </linearGradient>
    <filter id="shadow" x="-20%" y="-20%" width="140%" height="140%">
      <feDropShadow dx="0" dy="18" stdDeviation="24" flood-color="#000" flood-opacity="0.25"/>
    </filter>
  </defs>
  <rect width="1280" height="720" rx="0" fill="url(#bg)"/>
  <path d="M0 520 C210 460 310 635 530 568 C720 510 835 385 1055 452 C1158 483 1225 470 1280 430 L1280 720 L0 720 Z" fill="#22304a" opacity="0.55"/>
  <g filter="url(#shadow)">
    <rect x="104" y="80" width="1072" height="560" rx="28" fill="#f8fafc"/>
    <rect x="104" y="80" width="1072" height="88" rx="28" fill="#ffffff"/>
    <path d="M104 140 H1176 V168 H104 Z" fill="#ffffff"/>
    <circle cx="152" cy="124" r="10" fill="#ef4444"/>
    <circle cx="184" cy="124" r="10" fill="#f59e0b"/>
    <circle cx="216" cy="124" r="10" fill="#22c55e"/>
    <rect x="268" y="106" width="168" height="36" rx="18" fill="#ecfdf5"/>
    <text x="292" y="130" font-family="Inter, Arial, sans-serif" font-size="18" font-weight="700" fill="#047857">Coolify</text>
    <rect x="468" y="106" width="122" height="36" rx="18" fill="#f1f5f9"/>
    <text x="492" y="130" font-family="Inter, Arial, sans-serif" font-size="15" font-weight="650" fill="#475569">Healthy</text>
    <rect x="918" y="104" width="210" height="40" rx="20" fill="url(#accent)"/>
    <text x="954" y="130" font-family="Inter, Arial, sans-serif" font-size="15" font-weight="700" fill="#ffffff">Deploy app</text>
  </g>
  <g>
    <rect x="144" y="206" width="280" height="376" rx="18" fill="#ffffff"/>
    <text x="172" y="248" font-family="Inter, Arial, sans-serif" font-size="18" font-weight="800" fill="#0f172a">Resources</text>
    <g font-family="Inter, Arial, sans-serif" font-size="15" font-weight="650">
      <rect x="172" y="276" width="224" height="48" rx="14" fill="#ecfdf5"/>
      <text x="196" y="306" fill="#047857">Applications</text>
      <rect x="172" y="340" width="224" height="48" rx="14" fill="#f8fafc"/>
      <text x="196" y="370" fill="#475569">Databases</text>
      <rect x="172" y="404" width="224" height="48" rx="14" fill="#f8fafc"/>
      <text x="196" y="434" fill="#475569">Deployments</text>
      <rect x="172" y="468" width="224" height="48" rx="14" fill="#f8fafc"/>
      <text x="196" y="498" fill="#475569">Environment</text>
    </g>
  </g>
  <g>
    <rect x="456" y="206" width="680" height="176" rx="18" fill="#ffffff"/>
    <text x="488" y="252" font-family="Inter, Arial, sans-serif" font-size="22" font-weight="850" fill="#0f172a">production-api</text>
    <text x="488" y="282" font-family="Inter, Arial, sans-serif" font-size="15" font-weight="600" fill="#64748b">Last deployment completed successfully</text>
    <rect x="488" y="312" width="156" height="34" rx="17" fill="#dcfce7"/>
    <text x="514" y="334" font-family="Inter, Arial, sans-serif" font-size="14" font-weight="800" fill="#15803d">Running</text>
    <rect x="680" y="312" width="146" height="34" rx="17" fill="#ede9fe"/>
    <text x="706" y="334" font-family="Inter, Arial, sans-serif" font-size="14" font-weight="800" fill="#6d28d9">Synced</text>
    <path d="M944 262 C944 232 968 208 998 208 C1028 208 1052 232 1052 262 C1052 292 1028 316 998 316 C968 316 944 292 944 262 Z" fill="#ecfdf5"/>
    <path d="M972 264 L990 282 L1028 238" fill="none" stroke="#16a34a" stroke-width="10" stroke-linecap="round" stroke-linejoin="round"/>
  </g>
  <g font-family="Inter, Arial, sans-serif">
    <rect x="456" y="414" width="328" height="168" rx="18" fill="#ffffff"/>
    <text x="488" y="456" font-size="18" font-weight="800" fill="#0f172a">Recent logs</text>
    <text x="488" y="494" font-size="14" font-weight="650" fill="#64748b">Build finished</text>
    <text x="488" y="526" font-size="14" font-weight="650" fill="#64748b">Container started</text>
    <text x="488" y="558" font-size="14" font-weight="650" fill="#64748b">Health check passed</text>
    <rect x="808" y="414" width="328" height="168" rx="18" fill="#ffffff"/>
    <text x="840" y="456" font-size="18" font-weight="800" fill="#0f172a">Environment</text>
    <rect x="840" y="486" width="104" height="28" rx="14" fill="#f1f5f9"/>
    <text x="862" y="505" font-size="13" font-weight="800" fill="#475569">API_URL</text>
    <rect x="840" y="528" width="132" height="28" rx="14" fill="#f1f5f9"/>
    <text x="862" y="547" font-size="13" font-weight="800" fill="#475569">APP_ENV</text>
  </g>
</svg>
